<svg width="65" height="66" viewBox="0 0 65 66" fill="none" xmlns="http://www.w3.org/2000/svg">
<path fill-rule="evenodd" clip-rule="evenodd" d="M0 0.998047H65V65.998H0V0.998047ZM12.9312 11.7604H10.9352V10.2829H16.9213V11.7604H14.9273V18.0923H16.9213V19.5698H10.9352V18.0923H12.9312V11.7604ZM31.0235 13.3964H31.1696L33.285 19.5698H35.6803V10.2829H33.9765V16.4563H33.8303L31.7149 10.2829H29.3196V19.5698H31.0235V13.3964ZM47.3995 11.9209V10.2829H54.7439V11.9209H52.0687V19.5698H50.0747V11.9209H47.3995ZM10.9619 38.1415H16.8946V36.5056H12.958V34.2564H16.7629V32.6204H12.958V30.4906H16.8946V28.8546H10.9619V38.1415ZM16.8946 56.7132H10.9619V47.4263H16.8946V49.0623H12.958V51.1921H16.7629V52.8281H12.958V55.0752H16.8946V56.7132ZM29.5007 28.8546V38.1415H35.4992V36.5056H31.5091V28.8546H29.5007ZM48.0724 38.1415V28.8546H50.0809V36.5056H54.071V38.1415H48.0724ZM31.5235 49.5809C31.7437 49.1714 32.1162 48.9676 32.6409 48.9676C32.8652 48.9676 33.0566 49.0047 33.2171 49.0767C33.3756 49.1508 33.5093 49.2516 33.6184 49.3813C33.7254 49.5109 33.8139 49.6652 33.8839 49.8463C33.9518 50.0274 34.0135 50.225 34.0649 50.441L35.8738 50.0007C35.7791 49.6035 35.6474 49.2475 35.4787 48.9286C35.3099 48.6096 35.098 48.338 34.8387 48.1137C34.5794 47.8894 34.2728 47.7144 33.9147 47.591C33.5567 47.4654 33.1451 47.4037 32.68 47.4037C31.4742 47.4037 30.579 47.8112 29.9987 48.6261C29.4164 49.4409 29.1262 50.5892 29.1262 52.0708C29.1262 53.5524 29.4164 54.7007 29.9987 55.5156C30.5811 56.3305 31.4742 56.7379 32.68 56.7379C33.1451 56.7379 33.5567 56.6783 33.9147 56.5568C34.2728 56.4354 34.5794 56.2626 34.8387 56.0342C35.098 55.8058 35.3099 55.5321 35.4787 55.2131C35.6474 54.8941 35.777 54.5361 35.8738 54.141L34.0649 53.7006C33.9703 54.1327 33.8221 54.4846 33.6184 54.7604C33.4167 55.0361 33.0895 55.174 32.643 55.174C32.1162 55.174 31.7437 54.9703 31.5256 54.5608C31.3054 54.1513 31.1964 53.5854 31.1964 52.861V51.2847C31.1943 50.5563 31.3034 49.9904 31.5235 49.5809ZM50.0747 49.0623H47.3995V47.4263H54.7439V49.0623H52.0687V56.7132H50.0747V49.0623Z" fill="#797B8B"/>
</svg>
