<svg width="25" height="15" viewBox="0 0 25 15" fill="none" xmlns="http://www.w3.org/2000/svg">
<path d="M23.543 1.82031C23.6719 1.30469 23.543 0.875 22.7695 0.875H20.2344C19.5898 0.875 19.2891 1.21875 19.1172 1.60547C19.1172 1.60547 17.8281 4.74219 16.0234 6.80469C15.4219 7.36328 15.1641 7.57812 14.8203 7.57812C14.6914 7.57812 14.4336 7.36328 14.4336 6.84766V1.82031C14.4336 1.17578 14.2617 0.875 13.7031 0.875H9.75C9.32031 0.875 9.10547 1.17578 9.10547 1.47656C9.10547 2.07812 10.0078 2.20703 10.0938 3.92578V7.66406C10.0938 8.48047 9.96484 8.65234 9.62109 8.65234C8.76172 8.65234 6.69922 5.47266 5.45312 1.86328C5.19531 1.17578 4.9375 0.875 4.29297 0.875H1.75781C1.07031 0.875 0.898438 1.21875 0.898438 1.60547C0.898438 2.29297 1.75781 5.60156 4.89453 10.0273C7 13.0352 9.96484 14.625 12.6289 14.625C14.2188 14.625 14.4336 14.2812 14.4336 13.6797C14.4336 10.8008 14.3047 10.5 15.0781 10.5C15.4648 10.5 16.1094 10.7148 17.6133 12.1758C19.332 13.8945 19.6328 14.625 20.5781 14.625H23.1133C23.8438 14.625 24.1875 14.2812 23.9727 13.5508C23.5 12.0898 20.2773 8.99609 20.1055 8.78125C19.7188 8.30859 19.8477 8.09375 20.1055 7.66406C20.1055 7.66406 23.1992 3.28125 23.543 1.82031Z" fill="#005BEA"/>
</svg>
