<svg width="42" height="48" viewBox="0 0 42 48" fill="none" xmlns="http://www.w3.org/2000/svg">
<path fill-rule="evenodd" clip-rule="evenodd" d="M40.1123 19.5685H9.82557L38.9163 11.0397C39.1424 10.9734 39.3331 10.8186 39.4468 10.6101C39.5606 10.4013 39.5876 10.1556 39.5221 9.92682L37.9998 4.60814C37.3915 2.48383 35.4371 1 33.247 1C32.7854 1 32.3256 1.06633 31.8797 1.19688L4.56649 9.20456C3.30322 9.57481 2.25632 10.4248 1.61792 11.5974C0.979872 12.7699 0.830068 14.12 1.19591 15.3982L2.6832 20.5944V42C2.6832 44.7571 4.89939 47 7.62325 47H18.2905C18.7809 47 19.1782 46.5978 19.1782 46.1016C19.1782 45.6053 18.7809 45.2031 18.2905 45.2031H7.6236C5.87831 45.2031 4.45865 43.7663 4.45865 42V29.7735H39.2245V42C39.2245 43.7663 37.8049 45.2031 36.0596 45.2031H25.3923C24.9023 45.2031 24.5046 45.6053 24.5046 46.1016C24.5046 46.5978 24.9023 47 25.3923 47H36.0596C38.7838 47 41 44.7571 41 42V20.467C41 19.9707 40.6026 19.5685 40.1123 19.5685ZM24.4588 27.9766L28.2306 21.3654H33.1363L29.3649 27.9766H24.4588ZM17.5027 27.9766L21.2745 21.3654H26.1802L22.4087 27.9766H17.5027ZM10.5468 27.9766L14.3183 21.3654H19.2244L15.4526 27.9766H10.5468ZM13.8474 16.3457L7.53136 10.2062L12.2637 8.81886C12.297 8.868 12.3358 8.91432 12.3802 8.95749L18.6962 15.097L13.9639 16.4844C13.9306 16.4352 13.8914 16.3885 13.8474 16.3457ZM25.7429 5.03981L32.0589 11.1794L27.3266 12.5667C27.2933 12.5175 27.2545 12.4709 27.2101 12.4281L20.8941 6.2885L25.6264 4.90118C25.6597 4.95032 25.6985 4.99664 25.7429 5.03981ZM19.0614 6.99883L25.3774 13.138L20.6451 14.5257C20.6118 14.4766 20.5729 14.4299 20.5286 14.3871L14.2125 8.24751L18.9449 6.8602C18.9785 6.90898 19.0173 6.95566 19.0614 6.99883ZM32.3738 2.92287C32.6588 2.83934 32.9526 2.79688 33.247 2.79688C34.6517 2.79688 35.9046 3.74725 36.2944 5.10825L37.5698 9.56358L34.0081 10.6077C33.9745 10.5585 33.9356 10.5122 33.8913 10.469L27.5756 4.32983L32.3738 2.92287ZM3.17318 12.4642C3.58236 11.7121 4.25267 11.1674 5.06064 10.9305L5.58217 10.7775C5.61581 10.8267 5.65465 10.8733 5.69869 10.9162L12.0147 17.0557L4.17672 19.3537L2.90131 14.8984C2.66724 14.081 2.76399 13.2166 3.17318 12.4642ZM4.45865 21.3654H12.2682L8.49676 27.9766H4.45865V21.3654ZM31.415 27.9766L35.1864 21.3654H39.2245V27.9766H31.415Z" fill="#005BEA"/>
<path fill-rule="evenodd" clip-rule="evenodd" d="M27.9799 37.3969C27.9799 37.0758 27.8107 36.7792 27.536 36.6188L19.7369 32.0617C19.4623 31.9013 19.1238 31.9013 18.8492 32.0617C18.5745 32.2221 18.4053 32.5187 18.4053 32.8398V41.954C18.4053 42.2748 18.5745 42.5713 18.8492 42.7317C18.9865 42.8121 19.1398 42.8524 19.293 42.8524C19.4463 42.8524 19.5996 42.8121 19.7369 42.7317L27.536 38.175C27.8107 38.0146 27.9799 37.718 27.9799 37.3969ZM20.1808 40.3979V34.3959L25.3167 37.3969L20.1808 40.3979Z" fill="#005BEA"/>
<path fill-rule="evenodd" clip-rule="evenodd" d="M21.8414 45.2031C21.3525 45.2031 20.9537 45.6067 20.9537 46.1016C20.9537 46.5964 21.3525 47 21.8414 47C22.3307 47 22.7292 46.5964 22.7292 46.1016C22.7292 45.6067 22.3307 45.2031 21.8414 45.2031Z" fill="#005BEA"/>
<path fill-rule="evenodd" clip-rule="evenodd" d="M40.1123 19.5685H9.82557L38.9163 11.0397C39.1424 10.9734 39.3331 10.8186 39.4468 10.6101C39.5606 10.4013 39.5876 10.1556 39.5221 9.92682L37.9998 4.60814C37.3915 2.48383 35.4371 1 33.247 1C32.7854 1 32.3256 1.06633 31.8797 1.19688L4.56649 9.20456C3.30322 9.57481 2.25632 10.4248 1.61792 11.5974C0.979872 12.7699 0.830068 14.12 1.19591 15.3982L2.6832 20.5944V42C2.6832 44.7571 4.89939 47 7.62325 47H18.2905C18.7809 47 19.1782 46.5978 19.1782 46.1016C19.1782 45.6053 18.7809 45.2031 18.2905 45.2031H7.6236C5.87831 45.2031 4.45865 43.7663 4.45865 42V29.7735H39.2245V42C39.2245 43.7663 37.8049 45.2031 36.0596 45.2031H25.3923C24.9023 45.2031 24.5046 45.6053 24.5046 46.1016C24.5046 46.5978 24.9023 47 25.3923 47H36.0596C38.7838 47 41 44.7571 41 42V20.467C41 19.9707 40.6026 19.5685 40.1123 19.5685ZM24.4588 27.9766L28.2306 21.3654H33.1363L29.3649 27.9766H24.4588ZM17.5027 27.9766L21.2745 21.3654H26.1802L22.4087 27.9766H17.5027ZM10.5468 27.9766L14.3183 21.3654H19.2244L15.4526 27.9766H10.5468ZM13.8474 16.3457L7.53136 10.2062L12.2637 8.81886C12.297 8.868 12.3358 8.91432 12.3802 8.95749L18.6962 15.097L13.9639 16.4844C13.9306 16.4352 13.8914 16.3885 13.8474 16.3457ZM25.7429 5.03981L32.0589 11.1794L27.3266 12.5667C27.2933 12.5175 27.2545 12.4709 27.2101 12.4281L20.8941 6.2885L25.6264 4.90118C25.6597 4.95032 25.6985 4.99664 25.7429 5.03981ZM19.0614 6.99883L25.3774 13.138L20.6451 14.5257C20.6118 14.4766 20.5729 14.4299 20.5286 14.3871L14.2125 8.24751L18.9449 6.8602C18.9785 6.90898 19.0173 6.95566 19.0614 6.99883ZM32.3738 2.92287C32.6588 2.83934 32.9526 2.79688 33.247 2.79688C34.6517 2.79688 35.9046 3.74725 36.2944 5.10825L37.5698 9.56358L34.0081 10.6077C33.9745 10.5585 33.9356 10.5122 33.8913 10.469L27.5756 4.32983L32.3738 2.92287ZM3.17318 12.4642C3.58236 11.7121 4.25267 11.1674 5.06064 10.9305L5.58217 10.7775C5.61581 10.8267 5.65465 10.8733 5.69869 10.9162L12.0147 17.0557L4.17672 19.3537L2.90131 14.8984C2.66724 14.081 2.76399 13.2166 3.17318 12.4642ZM4.45865 21.3654H12.2682L8.49676 27.9766H4.45865V21.3654ZM31.415 27.9766L35.1864 21.3654H39.2245V27.9766H31.415Z" stroke="white" stroke-width="0.2"/>
<path fill-rule="evenodd" clip-rule="evenodd" d="M27.9799 37.3969C27.9799 37.0758 27.8107 36.7792 27.536 36.6188L19.7369 32.0617C19.4623 31.9013 19.1238 31.9013 18.8492 32.0617C18.5745 32.2221 18.4053 32.5187 18.4053 32.8398V41.954C18.4053 42.2748 18.5745 42.5713 18.8492 42.7317C18.9865 42.8121 19.1398 42.8524 19.293 42.8524C19.4463 42.8524 19.5996 42.8121 19.7369 42.7317L27.536 38.175C27.8107 38.0146 27.9799 37.718 27.9799 37.3969ZM20.1808 40.3979V34.3959L25.3167 37.3969L20.1808 40.3979Z" stroke="white" stroke-width="0.2"/>
<path fill-rule="evenodd" clip-rule="evenodd" d="M21.8414 45.2031C21.3525 45.2031 20.9537 45.6067 20.9537 46.1016C20.9537 46.5964 21.3525 47 21.8414 47C22.3307 47 22.7292 46.5964 22.7292 46.1016C22.7292 45.6067 22.3307 45.2031 21.8414 45.2031Z" stroke="white" stroke-width="0.2"/>
</svg>
