<svg width="46" height="46" viewBox="0 0 46 46" fill="none" xmlns="http://www.w3.org/2000/svg">
<path d="M33.8696 10.4134C33.8696 11.7711 34.9738 12.8751 36.3317 12.8751C37.6898 12.8751 38.7938 11.771 38.7938 10.4134C38.7938 9.05554 37.6898 7.95167 36.3317 7.95167C34.9737 7.95167 33.8696 9.05554 33.8696 10.4134ZM37.1524 10.4134C37.1524 10.8659 36.7842 11.234 36.3317 11.234C35.8792 11.234 35.511 10.866 35.511 10.4134C35.511 9.96084 35.8792 9.59281 36.3317 9.59281C36.7842 9.59281 37.1524 9.96084 37.1524 10.4134Z" fill="#005BEA"/>
<path d="M37.1496 18.3457C37.1496 17.8925 36.7822 17.5251 36.3289 17.5251C35.8757 17.5251 35.5083 17.8925 35.5083 18.3457C35.5083 18.7989 35.8757 19.1662 36.3289 19.1662C36.7822 19.1662 37.1496 18.7989 37.1496 18.3457Z" fill="#005BEA"/>
<path d="M23.9184 14.5809C23.9184 14.3543 23.7347 14.1706 23.5081 14.1706C23.2814 14.1706 23.0977 14.3543 23.0977 14.5809C23.0977 14.8075 23.2814 14.9912 23.5081 14.9912C23.7347 14.9912 23.9184 14.8075 23.9184 14.5809Z" fill="#005BEA"/>
<path d="M31.2021 13.7603C31.2021 13.5337 31.0184 13.35 30.7917 13.35C30.5651 13.35 30.3814 13.5337 30.3814 13.7603C30.3814 13.9869 30.5651 14.1706 30.7917 14.1706C31.0184 14.1706 31.2021 13.9869 31.2021 13.7603Z" fill="#005BEA"/>
<path d="M34.31 22.7538C34.31 22.5272 34.1263 22.3435 33.8997 22.3435C33.6731 22.3435 33.4893 22.5272 33.4893 22.7538C33.4893 22.9804 33.6731 23.1641 33.8997 23.1641C34.1263 23.1641 34.31 22.9804 34.31 22.7538Z" fill="#005BEA"/>
<path d="M32.1713 7.19571C32.1713 6.96912 31.9876 6.78543 31.761 6.78543C31.5343 6.78543 31.3506 6.96912 31.3506 7.19571C31.3506 7.42231 31.5343 7.606 31.761 7.606C31.9876 7.606 32.1713 7.42231 32.1713 7.19571Z" fill="#005BEA"/>
<path d="M40.3101 16.1892C40.3101 15.9626 40.1264 15.7789 39.8998 15.7789C39.6732 15.7789 39.4894 15.9626 39.4894 16.1892C39.4894 16.4158 39.6732 16.5995 39.8998 16.5995C40.1264 16.5995 40.3101 16.4158 40.3101 16.1892Z" fill="#005BEA"/>
<path d="M27.7117 9.93479C27.7117 9.1417 27.0686 8.49879 26.2754 8.49879C25.4823 8.49879 24.8392 9.1417 24.8392 9.93479C24.8392 10.7279 25.4823 11.3708 26.2754 11.3708C27.0686 11.3708 27.7117 10.7279 27.7117 9.93479Z" fill="#005BEA"/>
<path d="M0.0411508 6.56459C3.81326 6.56459 6.6067 9.35752 6.6067 13.1292C6.6067 9.35752 9.39973 6.56459 13.1723 6.56459C9.39973 6.56459 6.6067 3.77167 6.6067 3.52591e-06C6.6067 3.77167 3.81326 6.56459 0.0411508 6.56459ZM8.12683 6.56459C7.55214 6.99908 7.04126 7.50979 6.6067 8.0845C6.17204 7.50979 5.66136 6.99908 5.08647 6.56459C5.66126 6.1301 6.17204 5.61939 6.6067 5.04469C7.04116 5.61939 7.55204 6.1301 8.12683 6.56459Z" fill="#005BEA"/>
<path d="M36.1517 39.3875C38.0377 39.3875 39.4345 40.7839 39.4345 42.6698C39.4345 40.7839 40.8311 39.3875 42.7172 39.3875C40.8311 39.3875 39.4345 37.9911 39.4345 36.1052C39.4345 37.9912 38.0377 39.3875 36.1517 39.3875Z" fill="#005BEA"/>
<path d="M16.5442 13.2049C16.489 13.7253 16.455 14.2474 16.455 14.7703C16.455 17.7714 17.3793 20.7645 19.1975 23.3172L20.3673 22.1475C18.8934 19.9882 18.0964 17.4416 18.0964 14.7703C18.0964 13.5231 18.277 12.305 18.6112 11.1383L16.5442 13.2049Z" fill="#005BEA"/>
<path d="M19.7127 14.858C19.7127 17.1226 20.3771 19.2279 21.5084 21.0072L22.7046 19.8112C21.8517 18.354 21.3541 16.6649 21.3541 14.8581C21.3541 9.42859 25.7721 5.01124 31.2024 5.01124C36.6327 5.01124 41.0507 9.42859 41.0507 14.8581C41.0507 20.2877 36.6327 24.705 31.2024 24.705C28.7662 24.705 26.5436 23.8055 24.8239 22.3334L25.6613 21.4961C26.2628 22.2575 27.1833 22.7561 28.2274 22.7561C30.038 22.7561 31.5101 21.2842 31.5101 19.4739C31.5101 17.6636 30.038 16.1916 28.2274 16.1916C26.4167 16.1916 24.9446 17.6636 24.9446 19.4739C24.9446 19.6038 24.9682 19.7275 24.983 19.8533L3.58768 41.2455L4.74845 42.406L21.3955 25.7614C24.6087 28.6372 28.7651 29.8784 32.793 29.4516L34.8668 27.3781C30.674 28.5804 26.0124 27.6364 22.5627 24.5942L23.6534 23.5038C25.6719 25.2703 28.3089 26.3462 31.2024 26.3462C37.5481 26.3462 42.6921 21.203 42.6921 14.8581C42.6921 8.51355 37.5481 3.37009 31.2024 3.37009C24.8569 3.36999 19.7127 8.51345 19.7127 14.858ZM26.8484 20.3092L29.0629 18.0951C29.5359 18.3833 29.8688 18.8806 29.8688 19.4739C29.8688 20.3787 29.1324 21.115 28.2274 21.115C27.6341 21.115 27.1369 20.782 26.8484 20.3092Z" fill="#005BEA"/>
<path d="M20.8192 4.29222L3.48755 21.6178L4.64822 22.7784L21.9782 5.45076C27.1011 0.367926 35.4048 0.379717 40.5125 5.48666C42.9928 7.96643 44.3586 11.2635 44.3586 14.7704C44.3586 18.2602 43.004 21.5412 40.5466 24.0168L23.2054 41.3589L24.3661 42.5192L41.6721 25.2159L41.709 25.1788C44.5693 22.2992 46 18.5347 46 14.7704C46 10.9902 44.5577 7.21038 41.6732 4.32617C35.9161 -1.42985 26.5911 -1.43969 20.8192 4.29222Z" fill="#005BEA"/>
<path d="M-9.13257e-07 25.1071L1.16062 26.2676L3.48187 23.9467L2.32125 22.7862L-9.13257e-07 25.1071Z" fill="#005BEA"/>
<path d="M0.0620218 44.7701L1.22265 45.9306L3.5439 43.6097L2.38327 42.4492L0.0620218 44.7701Z" fill="#005BEA"/>
<path d="M19.7251 44.8395L20.8858 46L23.207 43.6791L22.0464 42.5186L19.7251 44.8395Z" fill="#005BEA"/>
</svg>
