<svg width="46" height="46" viewBox="0 0 46 46" fill="none" xmlns="http://www.w3.org/2000/svg">
<path d="M45.101 44.2031H24.9852L26.055 41.1483H33.1405C33.6366 41.1483 34.0389 40.7461 34.0389 40.2499C34.0389 37.4417 31.7886 35.1491 28.9959 35.0798C28.8438 34.7863 28.6678 34.5085 28.4715 34.2477L29.6886 30.7722C30.7852 31.6159 32.38 31.5323 33.377 30.5319L34.455 29.4505C34.8428 29.0614 35.4764 29.0591 35.8671 29.4454L36.9851 30.551C37.5258 31.0856 38.2382 31.3578 38.9535 31.3578C39.5615 31.3578 40.1716 31.1612 40.6798 30.7621L40.9527 30.5477L44.2534 39.9731C44.3829 40.3432 44.7302 40.5749 45.1013 40.5749C45.1999 40.5749 45.3 40.5586 45.3983 40.5242C45.8666 40.3602 46.1133 39.8475 45.9492 39.3793L38.2982 17.5311C37.8548 16.265 36.7016 15.447 35.3601 15.4469C35.3602 15.4469 35.3601 15.4469 35.3601 15.4469C34.0187 15.4469 32.8652 16.265 32.4218 17.5311L30.9666 21.6863L25.114 8.33498C24.7404 7.48289 23.9303 6.95353 22.9999 6.95353C22.0695 6.95353 21.2594 7.48298 20.886 8.33507L19.7517 10.9226C19.5524 11.377 19.7593 11.9069 20.2139 12.1061C20.6685 12.3055 21.1982 12.0985 21.3974 11.644L22.5317 9.05643C22.6528 8.78025 22.8995 8.75042 23 8.75033C23.1005 8.75033 23.3473 8.78016 23.4684 9.05643L28.5547 20.6599L27.5303 21.6842C27.3112 21.9034 27.0214 22.0213 26.7095 22.0191C26.3995 22.0159 26.1105 21.8908 25.896 21.667L25.3625 21.1105C24.7525 20.4742 23.8966 20.1474 23.0201 20.2132C22.1413 20.279 21.3458 20.7298 20.8376 21.4496L20.1598 22.4099C19.9647 22.686 19.6598 22.861 19.3229 22.8898C18.9859 22.9183 18.6557 22.7981 18.4167 22.5589L17.1626 21.3048L18.1123 19.1382C18.3116 18.6837 18.1047 18.1538 17.6502 17.9546C17.1957 17.7555 16.6659 17.9624 16.4667 18.4168L13.8839 24.3087L11.4808 18.087C11.1153 17.1406 10.2236 16.529 9.20896 16.529C8.19445 16.529 7.30267 17.1406 6.93719 18.087L3.69708 26.4763C3.68756 26.4985 3.67867 26.5209 3.67112 26.5435L0.0605923 35.8917C-0.118196 36.3546 0.112072 36.8747 0.575034 37.0535C0.681498 37.0946 0.790837 37.1141 0.898559 37.1141C1.2591 37.1141 1.59916 36.8956 1.7368 36.5392L4.88616 28.385L5.80022 29.2261C6.27055 29.6589 6.88157 29.8795 7.51937 29.847C8.15762 29.8147 8.74276 29.5335 9.16691 29.0553L9.53114 28.6446C9.67785 28.4792 9.85889 28.4545 9.95403 28.4545H9.95439C10.0494 28.4545 10.2307 28.4794 10.3775 28.6453L11.4511 29.8591L5.16314 44.2031H0.898739C0.402625 44.2031 0.000307507 44.6053 0.000307507 45.1016C0.000307507 45.5978 0.402625 46 0.898739 46H45.1009C45.5971 46 45.9994 45.5978 45.9994 45.1016C45.9994 44.6053 45.5971 44.2031 45.101 44.2031ZM34.1175 18.125C34.3451 17.4753 34.9085 17.2438 35.3599 17.2438C35.8112 17.2438 36.3747 17.4753 36.6021 18.125L40.325 28.7559L39.5698 29.3488C39.1741 29.6596 38.606 29.6271 38.2483 29.2734L37.1303 28.1677C36.0379 27.0875 34.2667 27.0938 33.1823 28.1819L32.1044 29.2633C31.7214 29.6475 31.0921 29.6538 30.7015 29.2775L30.3355 28.9247L34.1175 18.125ZM9.95538 26.6576C9.95475 26.6576 9.95439 26.6576 9.95439 26.6576C9.27868 26.6576 8.63459 26.9473 8.18664 27.4524L7.82241 27.8631C7.72089 27.9774 7.58091 28.0447 7.42818 28.0525C7.27302 28.0596 7.12927 28.0074 7.01679 27.9039L5.58199 26.5834L8.61357 18.7343C8.75597 18.3656 9.07761 18.3258 9.20923 18.3258C9.34094 18.3258 9.66258 18.3656 9.80498 18.7343L12.8601 26.6446L12.2459 28.0457L11.7233 27.4548C11.2755 26.9485 10.6312 26.658 9.95538 26.6576ZM23.0814 44.2032H7.12487V44.2031L16.3881 23.0713L17.1461 23.8293C17.7008 24.3841 18.4467 24.6907 19.2236 24.6907C19.3074 24.6907 19.3917 24.6871 19.4761 24.68C20.3421 24.6058 21.1264 24.1561 21.6276 23.446L22.3055 22.4859C22.5032 22.2058 22.8127 22.0305 23.1543 22.0049C23.4964 21.9786 23.8281 22.1065 24.0654 22.3539L24.5989 22.9104C25.1506 23.4858 25.8935 23.8074 26.6906 23.8157C26.7012 23.8158 26.7118 23.8159 26.7225 23.8159C27.5077 23.8159 28.2447 23.5108 28.8008 22.9547L29.3291 22.4265L30.0952 24.1745L27.0429 32.8904C26.0737 32.2335 24.9132 31.8568 23.6991 31.8568C21.4664 31.8568 19.4137 33.1285 18.4028 35.0799C15.61 35.1492 13.3596 37.4419 13.3596 40.2499C13.3596 40.7462 13.7619 41.1484 14.2581 41.1484H16.0936C16.5897 41.1484 16.992 40.7462 16.992 40.2499C16.992 39.7537 16.5897 39.3515 16.0936 39.3515H15.278C15.6725 37.9253 16.9825 36.8751 18.5332 36.8751C18.6464 36.8751 18.7642 36.8812 18.8832 36.8933C19.2868 36.9337 19.6674 36.6994 19.8124 36.3206C20.4233 34.7254 21.9853 33.6536 23.6992 33.6536C25.4133 33.6536 26.9754 34.7254 27.5864 36.3207C27.7315 36.6994 28.1107 36.934 28.5157 36.8933C28.6346 36.8813 28.7523 36.8752 28.8656 36.8752C30.4163 36.8752 31.7263 37.9254 32.1208 39.3516H22.4611C21.965 39.3516 21.5627 39.7538 21.5627 40.25C21.5627 40.7462 21.965 41.1485 22.4611 41.1485H24.1511L23.0814 44.2032Z" fill="#005BEA"/>
<path d="M12.5863 2.52976C11.7423 0.9944 10.0967 0 8.31062 0C6.52454 0 4.87906 0.994311 4.03507 2.52976C1.7907 2.64431 0.000307507 4.50274 0.000307507 6.77078C0.000307507 7.26699 0.402535 7.66923 0.898739 7.66923H15.7225C16.2186 7.66923 16.6209 7.26699 16.6209 6.77078C16.6209 4.50274 14.8304 2.64431 12.5863 2.52976ZM1.96832 5.87243C2.32859 4.96472 3.21768 4.32099 4.25483 4.32099C4.33668 4.32099 4.42293 4.32548 4.51106 4.33428C4.91347 4.37498 5.29432 4.1404 5.43941 3.76215C5.89033 2.58672 7.0441 1.79689 8.31053 1.79689C9.57714 1.79689 10.7309 2.58663 11.1818 3.76215C11.3269 4.1404 11.7065 4.37489 12.1103 4.33437C12.1982 4.32557 12.2844 4.32108 12.3663 4.32108C13.4036 4.32108 14.2927 4.96481 14.653 5.87243H1.96832Z" fill="#005BEA"/>
<path d="M40.519 4.8517C38.913 4.8517 37.424 5.53919 36.3918 6.72586C35.8864 6.49738 35.3376 6.37906 34.7692 6.37906C32.5894 6.37906 30.8162 8.15241 30.8162 10.3321C30.8162 10.8283 31.2184 11.2306 31.7146 11.2306H45.101C45.5971 11.2306 45.9995 10.8283 45.9995 10.3321C45.9994 7.31021 43.541 4.8517 40.519 4.8517ZM32.8091 9.43369C33.1504 8.69202 33.9006 8.17586 34.7692 8.17586C35.2485 8.17586 35.7024 8.33022 36.0819 8.6223C36.2828 8.77692 36.54 8.83937 36.7894 8.79444C37.0389 8.74943 37.2578 8.60101 37.392 8.38592C38.071 7.29799 39.2399 6.6485 40.5191 6.6485C42.2404 6.6485 43.6898 7.83535 44.0918 9.43369H32.8091Z" fill="#005BEA"/>
<path d="M19.6524 14.1288C19.4853 13.9617 19.2535 13.8655 19.0172 13.8655C18.78 13.8655 18.5491 13.9617 18.3811 14.1288C18.214 14.2968 18.1188 14.5277 18.1188 14.764C18.1188 15.0003 18.214 15.2321 18.3811 15.4001C18.5491 15.5673 18.7809 15.6624 19.0172 15.6624C19.2535 15.6624 19.4844 15.5672 19.6524 15.4001C19.8194 15.233 19.9157 15.0012 19.9157 14.764C19.9157 14.5277 19.8195 14.2959 19.6524 14.1288Z" fill="#005BEA"/>
<path d="M19.7717 39.6147C19.6047 39.4476 19.3729 39.3515 19.1366 39.3515C18.9003 39.3515 18.6686 39.4476 18.5014 39.6147C18.3343 39.7819 18.2382 40.0137 18.2382 40.2499C18.2382 40.4862 18.3342 40.718 18.5014 40.8852C18.6686 41.0523 18.9003 41.1484 19.1366 41.1484C19.3729 41.1484 19.6047 41.0523 19.7717 40.8852C19.9388 40.718 20.0351 40.4862 20.0351 40.2499C20.0351 40.0137 19.9389 39.7819 19.7717 39.6147Z" fill="#005BEA"/>
</svg>
