<svg width="48" height="38" viewBox="0 0 48 38" fill="none" xmlns="http://www.w3.org/2000/svg">
<path d="M46.7349 5.42337C45.9039 4.60714 44.82 4.15368 43.6638 4.15368H7.80424C5.41963 4.15368 3.46858 6.11263 3.46858 8.5069V33.6468C3.46858 36.0592 5.41963 38 7.80424 38H43.6638C46.0484 38 47.9995 36.041 47.9995 33.6468V8.48877C48.0175 7.32791 47.5659 6.2396 46.7349 5.42337ZM46.211 33.6468C46.211 35.0434 45.0729 36.1862 43.6819 36.1862H7.80424C6.41322 36.1862 5.2751 35.0434 5.2751 33.6468V8.48877C5.2751 7.09211 6.41322 5.94938 7.80424 5.94938H23.8643L23.5572 6.60237C23.2681 7.20094 23.1236 7.83578 23.1236 8.48877V23.8157C23.1236 26.2282 25.0746 28.169 27.4593 28.169H43.6819C44.3503 28.169 44.9826 28.0239 45.5607 27.7336L46.211 27.4253V33.6468ZM46.211 23.8157C46.211 25.2124 45.0729 26.3551 43.6819 26.3551H27.4593C26.0682 26.3551 24.9301 25.2124 24.9301 23.8157V8.48877C24.9301 7.09211 26.0682 5.94938 27.4593 5.94938H43.6819C45.0729 5.94938 46.211 7.09211 46.211 8.48877V23.8157Z" fill="#005BEA"/>
<path d="M35.5525 9.39567C31.8311 9.39567 28.7961 12.4429 28.7961 16.1613C28.7961 19.8978 31.8311 22.9269 35.5525 22.9269C39.274 22.9269 42.3089 19.8797 42.3089 16.1613C42.3089 12.4248 39.274 9.39567 35.5525 9.39567ZM35.5525 21.1131C32.8247 21.1131 30.6026 18.8821 30.6026 16.1613C30.6026 13.4224 32.8247 11.2095 35.5525 11.2095C38.2804 11.2095 40.5024 13.4405 40.5024 16.1613C40.5024 18.9002 38.2804 21.1131 35.5525 21.1131Z" fill="#005BEA"/>
<path d="M19.1131 8.65208H9.28564C8.77981 8.65208 8.38237 9.06926 8.38237 9.559V20.7867C8.38237 21.2946 8.77981 21.6936 9.28564 21.6936H19.1131C19.619 21.6936 20.0164 21.2764 20.0164 20.7867V9.559C20.0164 9.05112 19.6009 8.65208 19.1131 8.65208ZM18.2099 19.8798H10.1889V10.4659H18.2099V19.8798Z" fill="#005BEA"/>
<path d="M17.5594 0.906922C17.5594 1.4148 17.1439 1.81384 16.6562 1.81384H11.7424C11.2366 1.81384 10.8392 1.39666 10.8392 0.906922C10.8392 0.399046 11.2547 0 11.7424 0H16.6562C17.1439 0 17.5594 0.399046 17.5594 0.906922Z" fill="#005BEA"/>
<path d="M1.80653 24.5776V32.1776C1.80653 32.6855 1.40909 33.0845 0.903264 33.0845C0.397436 33.0845 0 32.6855 0 32.1776V24.5776C0 24.0697 0.397436 23.6707 0.903264 23.6707C1.40909 23.6707 1.80653 24.0878 1.80653 24.5776Z" fill="#005BEA"/>
<path d="M43.158 32.1776C43.158 32.6854 42.7606 33.0845 42.2548 33.0845H28.7961C28.2903 33.0845 27.8929 32.6854 27.8929 32.1776C27.8929 31.6697 28.3084 31.2706 28.7961 31.2706H42.2548C42.7606 31.2706 43.158 31.6878 43.158 32.1776Z" fill="#005BEA"/>
<path d="M14.1812 23.6707C11.5979 23.6707 9.48427 25.7929 9.48427 28.3867C9.48427 30.9804 11.5798 33.1026 14.1812 33.1026C16.7646 33.1026 18.8782 30.9986 18.8782 28.3867C18.8782 25.7929 16.7826 23.6707 14.1812 23.6707ZM14.1812 31.2707C12.5915 31.2707 11.2908 29.9647 11.2908 28.3685C11.2908 26.7723 12.5915 25.4664 14.1812 25.4664C15.771 25.4664 17.0717 26.7723 17.0717 28.3685C17.0717 29.9647 15.789 31.2707 14.1812 31.2707Z" fill="#005BEA"/>
<path d="M44.5671 0.906922C44.5671 1.4148 44.1516 1.81384 43.6639 1.81384H24.0088C23.503 1.81384 23.1056 1.39666 23.1056 0.906922C23.1056 0.399046 23.5211 0 24.0088 0H43.6639C44.1697 0 44.5671 0.399046 44.5671 0.906922Z" fill="#005BEA"/>
</svg>
