<svg width="0" height="0" class="hidden">
  <symbol fill="none" xmlns="http://www.w3.org/2000/svg" viewBox="0 0 22 22" id="facebook">
    <path d="M21.656 10.75C21.656 4.863 16.886.094 11 .094 5.113.094.344 4.864.344 10.75c0 5.328 3.867 9.754 8.98 10.527v-7.433H6.617V10.75h2.707V8.43c0-2.664 1.59-4.168 3.996-4.168a15.7 15.7 0 012.407.215v2.62h-1.332c-1.332 0-1.762.817-1.762 1.676v1.977h2.965l-.473 3.094h-2.492v7.433c5.113-.773 9.023-5.199 9.023-10.527z" fill="currentColor"></path>
  </symbol>
  <symbol fill="none" xmlns="http://www.w3.org/2000/svg" viewBox="0 0 20 20" id="instagram">
    <path d="M10 4.809A4.942 4.942 0 005.059 9.75 4.915 4.915 0 0010 14.691a4.942 4.942 0 004.941-4.941c0-2.707-2.234-4.941-4.941-4.941zm0 8.164A3.218 3.218 0 016.777 9.75c0-1.762 1.418-3.18 3.223-3.18a3.173 3.173 0 013.18 3.18c0 1.805-1.418 3.223-3.18 3.223zm6.273-8.336c0-.645-.515-1.16-1.16-1.16-.644 0-1.16.515-1.16 1.16 0 .644.516 1.16 1.16 1.16.645 0 1.16-.516 1.16-1.16zm3.266 1.16c-.086-1.547-.43-2.922-1.547-4.04C16.875.642 15.5.298 13.953.212c-1.59-.086-6.36-.086-7.95 0-1.546.086-2.878.43-4.038 1.547C.848 2.875.504 4.25.418 5.797c-.086 1.59-.086 6.36 0 7.95.086 1.546.43 2.878 1.547 4.038 1.16 1.117 2.492 1.461 4.039 1.547 1.59.086 6.36.086 7.95 0 1.546-.086 2.921-.43 4.038-1.547 1.117-1.16 1.461-2.492 1.547-4.039.086-1.59.086-6.36 0-7.95zm-2.062 9.625c-.301.86-.989 1.504-1.805 1.848-1.29.515-4.297.386-5.672.386-1.418 0-4.426.13-5.672-.386a3.258 3.258 0 01-1.848-1.848c-.515-1.246-.386-4.254-.386-5.672 0-1.375-.13-4.383.386-5.672a3.314 3.314 0 011.848-1.805c1.246-.515 4.254-.386 5.672-.386 1.375 0 4.383-.13 5.672.386.816.301 1.46.989 1.805 1.805.515 1.29.386 4.297.386 5.672 0 1.418.13 4.426-.386 5.672z" fill="currentColor"></path>
  </symbol>
  <symbol fill="none" xmlns="http://www.w3.org/2000/svg" viewBox="0 0 20 17" id="telegram">
    <path d="M19.54 2.004C19.796.8 19.11.328 18.335.629L1.234 7.203C.074 7.676.117 8.32 1.063 8.621l4.34 1.332 10.14-6.36c.473-.343.945-.128.559.173l-8.207 7.39-.301 4.512c.472 0 .644-.172.902-.43l2.106-2.062 4.425 3.265c.817.473 1.418.215 1.633-.73l2.88-13.707z" fill="currentColor"></path>
  </symbol>
  <symbol fill="none" xmlns="http://www.w3.org/2000/svg" viewBox="0 0 25 15" id="vk">
    <path d="M23.543 1.82c.129-.515 0-.945-.773-.945h-2.536c-.644 0-.945.344-1.117.73 0 0-1.289 3.137-3.094 5.2-.601.558-.859.773-1.203.773-.129 0-.386-.215-.386-.73V1.82c0-.644-.172-.945-.73-.945H9.75c-.43 0-.645.3-.645.602 0 .601.903.73.989 2.449v3.738c0 .816-.13.988-.473.988-.86 0-2.922-3.18-4.168-6.789-.258-.687-.516-.988-1.16-.988H1.758c-.688 0-.86.344-.86.73 0 .688.86 3.997 3.997 8.422 2.105 3.008 5.07 4.598 7.734 4.598 1.59 0 1.805-.344 1.805-.945 0-2.88-.13-3.18.644-3.18.387 0 1.031.215 2.535 1.676 1.719 1.719 2.02 2.449 2.965 2.449h2.535c.73 0 1.075-.344.86-1.074-.473-1.461-3.696-4.555-3.867-4.77-.387-.472-.258-.687 0-1.117 0 0 3.093-4.383 3.437-5.844z" fill="currentColor"></path>
  </symbol>
  <symbol fill="none" xmlns="http://www.w3.org/2000/svg" viewBox="0 0 23 15" id="youtube">
    <path d="M21.695 2.383A2.657 2.657 0 0019.82.469C18.14 0 11.5 0 11.5 0S4.82 0 3.14.469a2.657 2.657 0 00-1.874 1.914c-.47 1.64-.47 5.156-.47 5.156s0 3.477.47 5.156c.234.938.976 1.64 1.875 1.875C4.82 15 11.5 15 11.5 15s6.64 0 8.32-.43a2.605 2.605 0 001.875-1.875c.47-1.68.47-5.156.47-5.156s0-3.516-.47-5.156zm-12.383 8.32V4.375l5.547 3.164-5.546 3.164z" fill="currentColor"></path>
  </symbol>
</svg>